<svg xmlns="http://www.w3.org/2000/svg" viewBox="0 0 100 100" id="trash"><path fill="#2EC19C" d="M88 2H12C6.477 2 2 6.477 2 12v76c0 5.523 4.477 10 10 10h76c5.523 0 10-4.477 10-10V12c0-5.523-4.477-10-10-10z"></path><g fill="#FFF"><path d="M36.23 69.86c.3 2.36 2.51 4.14 5.15 4.14h18.24c2.64 0 4.85-1.78 5.14-4.15L68.15 41H32.848l3.382 28.86zm25.273-26.955a.99.99 0 011.091-.9 1 1 0 01.9 1.091L60.99 69.14a1 1 0 01-1.99-.191l2.504-26.043zm-6.003.048c.026-.552.52-.97 1.046-.951a1 1 0 01.952 1.047L56.245 69.09a1 1 0 01-.998.953l-.05-.001a1 1 0 01-.95-1.047L55.5 42.953zm-6.001.049a1 1 0 112 0l-.001 26.043a1 1 0 11-2 0V43.002zm-5.048-1c.536-.04 1.02.4 1.047.952l1.25 26.043a1 1 0 01-.95 1.047h-.05a1 1 0 01-.997-.952L43.5 43.05a1 1 0 01.95-1.046zm-6.048.004a.991.991 0 011.091.899l2.503 26.043a1 1 0 01-1.992.191l-2.502-26.043a1 1 0 01.9-1.09zM67.67 32h-7.172v-1.77a4.235 4.235 0 00-4.23-4.23h-11.54a4.235 4.235 0 00-4.23 4.23V32H32.32c-2.11 0-3.82 1.72-3.82 3.83V38c0 .56.45 1 1 1h41c.55 0 1-.44 1-1v-2.17c0-2.11-1.72-3.83-3.83-3.83zm-25.172-1.77c0-1.23 1-2.23 2.23-2.23h11.54c1.23 0 2.23 1 2.23 2.23V32h-16v-1.77z"></path></g></svg>